<svg width="22" height="22" viewBox="0 0 22 22" fill="none" xmlns="http://www.w3.org/2000/svg">
<path d="M2.75 5.5H4.58333H19.25" stroke="white" stroke-width="2" stroke-linecap="round" stroke-linejoin="round"/>
<path d="M7.33325 5.49999V3.66666C7.33325 3.18043 7.52641 2.71412 7.87022 2.3703C8.21404 2.02648 8.68036 1.83333 9.16659 1.83333H12.8333C13.3195 1.83333 13.7858 2.02648 14.1296 2.3703C14.4734 2.71412 14.6666 3.18043 14.6666 3.66666V5.49999M17.4166 5.49999V18.3333C17.4166 18.8196 17.2234 19.2859 16.8796 19.6297C16.5358 19.9735 16.0695 20.1667 15.5833 20.1667H6.41659C5.93036 20.1667 5.46404 19.9735 5.12022 19.6297C4.77641 19.2859 4.58325 18.8196 4.58325 18.3333V5.49999H17.4166Z" stroke="white" stroke-width="2" stroke-linecap="round" stroke-linejoin="round"/>
<path d="M12.8333 10.0833V15.5833" stroke="white" stroke-width="2" stroke-linecap="round" stroke-linejoin="round"/>
<path d="M9.16675 10.0833V15.5833" stroke="white" stroke-width="2" stroke-linecap="round" stroke-linejoin="round"/>
</svg>
